<svg width="414" height="387" viewBox="0 0 414 387" fill="none" xmlns="http://www.w3.org/2000/svg">
<path fill-rule="evenodd" clip-rule="evenodd" d="M207 0C221.375 1.24539e-06 233.594 5.12007 243.656 15.3594C253.719 25.5986 258.75 38.0317 258.75 52.6592C258.75 55.8772 258.463 58.876 257.888 61.6553C257.313 64.4344 256.45 67.2865 255.3 70.2119H261.338C278.588 70.212 293.25 75.8443 305.325 87.1074C317.4 98.3706 324.588 112.34 326.888 129.016C321.713 128.138 315.891 127.699 309.422 127.699C302.953 127.699 296.988 127.991 291.525 128.576C289.513 121.848 285.847 116.29 280.528 111.901C275.21 107.513 268.813 105.318 261.338 105.318C251.275 105.318 245.269 109.588 237.834 114.314C226.134 123.504 216.775 129.015 207 140.425C196.938 128.43 184.386 120.025 175.303 113.876C168.23 109.087 162.15 105.318 152.662 105.318C143.462 105.318 135.844 108.391 129.807 114.534C123.769 120.678 120.75 128.43 120.75 137.792C120.75 144.521 122.619 151.468 126.356 158.636C130.094 165.803 135.34 173.41 142.097 181.455C148.853 189.5 157.046 198.058 166.678 207.127C167.667 208.059 168.67 208.997 169.683 209.944C172.794 201.915 178.42 195.141 185.597 190.588C201.249 178.999 244.555 166.125 260.906 161.488C278.444 156.515 294.544 154.028 309.206 154.028C329.044 154.028 346.438 160.026 361.388 172.021C376.338 184.015 383.812 200.837 383.812 222.485C383.812 229.799 382.734 236.748 380.578 243.33C378.422 249.912 375.331 256.129 371.307 261.979C383.669 263.442 393.875 269.221 401.925 279.313C409.975 289.406 414 300.743 414 313.322C414 327.95 409.041 340.384 399.122 350.623C389.203 360.862 376.912 365.982 362.25 365.982C354.775 365.982 347.515 364.3 340.472 360.936C333.428 357.571 327.606 352.817 323.006 346.674C317.256 358.961 309.134 368.615 298.641 375.636C288.147 382.657 276.143 386.168 262.631 386.168C256.306 386.168 250.053 385.29 243.872 383.535C237.691 381.78 231.725 379 225.975 375.197C229.137 371.102 232.3 366.274 235.463 360.716C238.625 355.158 241.5 350.038 244.088 345.357C247.25 347.405 250.413 348.868 253.575 349.745C256.738 350.623 259.9 351.062 263.062 351.062C272.262 351.062 279.954 347.771 286.135 341.188C292.316 334.606 297.255 328.15 295.406 317.711C293.975 309.63 293.417 307.203 291.956 299.719C290.496 292.235 288.756 280.059 287.017 269.622C299.193 266.143 316.588 259.185 329.69 252.765C342.68 245.269 349.312 238.868 349.312 222.485C349.312 210.783 345.072 202.299 336.591 197.033C328.11 191.767 318.838 189.135 308.775 189.135C296.7 189.135 282.613 191.475 266.513 196.156C258.753 198.412 250.359 200.974 241.33 203.842C244.769 209.573 246.815 216.236 246.995 223.362L247.009 224.395L247.003 225.29C246.792 244.139 240.004 266.341 236.325 283.044C232.588 300.012 227.34 316.175 220.584 331.534C213.828 346.893 204.915 359.838 193.847 370.37C182.778 380.902 168.475 386.168 150.938 386.168C137.713 386.168 125.853 382.657 115.359 375.636C104.866 368.615 96.7441 358.961 90.9941 346.674C86.3942 352.817 80.572 357.571 73.5283 360.936C66.4846 364.3 59.225 365.982 51.75 365.982C37.0875 365.982 24.7967 360.862 14.8779 350.623C4.95924 340.384 0 327.95 0 313.322C9.64691e-05 300.743 4.02529 289.406 12.0752 279.313C20.1251 269.221 30.3311 263.442 42.6934 261.979C38.6686 256.129 35.5781 249.912 33.4219 243.33C31.2656 236.748 30.1875 229.799 30.1875 222.485C30.1875 210.783 33.1346 199.813 39.0283 189.573C44.9221 179.334 53.1878 170.997 63.8252 164.561C65.2627 169.826 67.2028 175.458 69.6465 181.455C72.0902 187.452 74.8941 192.645 78.0566 197.033C74.0317 200.251 70.8684 204.128 68.5684 208.662C66.2684 213.197 65.1192 217.951 65.1191 222.924C65.1191 239.307 72.5007 247.222 84.9561 253.203C97.4116 259.185 114.807 266.143 126.572 269.44C125.244 280.059 122.794 292.791 121.765 300.933C119.315 311.925 119.025 312.149 119.025 318.149C119.025 326.926 122.116 334.606 128.297 341.188C134.478 347.771 142.025 351.062 150.938 351.062C161.863 351.062 170.919 346.088 178.106 336.142C185.294 326.195 191.187 314.492 195.787 301.035C199.924 288.933 203.185 276.713 205.578 264.374C201.202 264.221 197.006 263.368 193.097 261.919L193.084 261.979C172.21 253.966 148.997 238.356 138.216 227.971C127.435 217.585 118.163 207.492 110.4 197.691C102.638 187.891 96.6717 178.091 92.5029 168.29C88.3343 158.49 86.25 148.324 86.25 137.792C86.25 118.776 92.6468 102.759 105.44 89.7402C118.234 76.7218 133.975 70.212 152.662 70.2119C153.812 70.2119 154.819 70.2854 155.682 70.4316C156.544 70.5779 157.55 70.6514 158.7 70.6514C157.55 67.726 156.687 64.8004 156.112 61.875C155.537 58.9495 155.25 55.8772 155.25 52.6592C155.25 38.0317 160.281 25.5986 170.344 15.3594C180.406 5.12007 192.625 0 207 0ZM51.75 295.77C46.8625 295.77 42.7652 297.452 39.459 300.816C36.1531 304.181 34.5001 308.349 34.5 313.322C34.5 318.295 36.1529 322.465 39.459 325.829C42.7652 329.193 46.8625 330.876 51.75 330.876C56.6375 330.876 60.7348 329.193 64.041 325.829C67.3471 322.465 69 318.295 69 313.322C68.9999 308.349 67.3469 304.181 64.041 300.816C60.7348 297.452 56.6375 295.77 51.75 295.77ZM362.25 295.331C357.363 295.331 353.265 297.013 349.959 300.377C346.653 303.741 345 307.91 345 312.884C345 317.857 346.725 322.1 350.175 325.61C353.625 329.121 357.794 330.876 362.682 330.876C367.569 330.876 371.593 329.193 374.756 325.829C377.918 322.465 379.5 318.296 379.5 313.322C379.5 308.349 377.847 304.107 374.541 300.597C371.235 297.086 367.137 295.331 362.25 295.331ZM207 35.1064C202.113 35.1064 198.015 36.788 194.709 40.1523C191.403 43.5167 189.75 47.6859 189.75 52.6592C189.75 57.6325 191.403 61.8017 194.709 65.166C198.015 68.5304 202.113 70.2119 207 70.2119C211.887 70.2119 215.985 68.5304 219.291 65.166C222.597 61.8017 224.25 57.6325 224.25 52.6592C224.25 47.6859 222.597 43.5167 219.291 40.1523C215.985 36.788 211.887 35.1064 207 35.1064Z" fill="white"/>
</svg>
