<svg width="180" height="180" viewBox="0 0 180 180" fill="none" xmlns="http://www.w3.org/2000/svg">
<rect width="180" height="180" fill="url(#paint0_linear_126_200)"/>
<g filter="url(#filter0_d_126_200)">
<path fill-rule="evenodd" clip-rule="evenodd" d="M90 37C93.9583 37 97.3229 38.4054 100.094 41.216C102.865 44.0266 104.25 47.4394 104.25 51.4545C104.25 52.3379 104.171 53.161 104.013 53.9239C103.854 54.6867 103.617 55.4696 103.3 56.2726H104.963C109.713 56.2726 113.75 57.8186 117.075 60.9103C120.4 64.0019 122.379 67.8365 123.013 72.4138C121.588 72.1728 119.984 72.0524 118.203 72.0524C116.422 72.0524 114.779 72.1325 113.275 72.2931C112.721 70.4462 111.711 68.9206 110.247 67.716C108.782 66.5115 107.021 65.9091 104.963 65.909C102.192 65.909 100.538 67.0811 98.4905 68.3784C95.2688 70.9009 92.6916 72.4137 90 75.5455C87.2292 72.2531 83.773 69.946 81.2718 68.258C79.3241 66.9436 77.6499 65.909 75.0374 65.909C72.5041 65.9091 70.4063 66.7524 68.7439 68.4387C67.0814 70.1251 66.25 72.2531 66.25 74.8228C66.25 76.6697 66.7647 78.5768 67.7938 80.5442C68.823 82.5117 70.2677 84.5996 72.1281 86.808C73.9885 89.0163 76.2447 91.3653 78.8968 93.8547C79.1693 94.1105 79.4454 94.368 79.7242 94.628C80.5809 92.4241 82.1303 90.5646 84.1063 89.3148C88.4163 86.1337 100.341 82.6001 104.844 81.3272C109.673 79.9621 114.106 79.2795 118.144 79.2795C123.606 79.2795 128.396 80.9258 132.513 84.2182C136.629 87.5107 138.687 92.1281 138.687 98.0704C138.687 100.078 138.391 101.985 137.797 103.792C137.203 105.599 136.352 107.305 135.244 108.911C138.648 109.313 141.458 110.899 143.675 113.669C145.892 116.44 147 119.551 147 123.004C147 127.02 145.634 130.433 142.903 133.243C140.172 136.054 136.787 137.459 132.75 137.459C130.692 137.459 128.693 136.997 126.753 136.074C124.814 135.15 123.21 133.846 121.944 132.159C120.36 135.532 118.124 138.182 115.234 140.109C112.345 142.036 109.039 143 105.319 143C103.577 143 101.855 142.759 100.153 142.277C98.4511 141.796 96.8082 141.033 95.2249 139.989C96.0957 138.864 96.9668 137.539 97.8376 136.014C98.7084 134.488 99.5001 133.083 100.213 131.798C101.083 132.36 101.954 132.761 102.825 133.002C103.696 133.243 104.567 133.364 105.437 133.364C107.971 133.364 110.089 132.46 111.791 130.653C113.493 128.847 114.853 127.074 114.344 124.209C113.95 121.991 113.796 121.325 113.394 119.27C112.992 117.216 112.513 113.874 112.034 111.009C115.386 110.054 120.176 108.144 123.784 106.382C127.361 104.324 129.187 102.567 129.187 98.0704C129.187 94.8583 128.02 92.5295 125.684 91.084C123.349 89.6386 120.796 88.916 118.025 88.916C114.7 88.916 110.821 89.5585 106.388 90.8433C104.251 91.4626 101.939 92.1658 99.4532 92.9529C100.4 94.5261 100.963 96.3549 101.013 98.3112L101.017 98.5945L101.015 98.8403C100.957 104.014 99.0881 110.108 98.0751 114.693C97.0459 119.351 95.6009 123.788 93.7405 128.003C91.8801 132.219 89.426 135.773 86.3781 138.664C83.3302 141.555 79.3917 143 74.5625 143C70.9208 143 67.6552 142.036 64.7656 140.109C61.8761 138.182 59.6397 135.532 58.0564 132.159C56.7897 133.846 55.1865 135.15 53.2469 136.074C51.3073 136.997 49.3083 137.459 47.25 137.459C43.2125 137.459 39.8281 136.054 37.0968 133.243C34.3656 130.433 33 127.02 33 123.004C33 119.551 34.1084 116.44 36.3251 113.669C38.5417 110.899 41.352 109.313 44.7561 108.911C43.6479 107.305 42.7969 105.599 42.2031 103.792C41.6094 101.985 41.3125 100.078 41.3125 98.0704C41.3125 94.8583 42.124 91.8469 43.7469 89.0363C45.3698 86.2258 47.6459 83.9372 50.5751 82.1705C50.9709 83.616 51.5051 85.1618 52.178 86.808C52.8509 88.4542 53.623 89.8795 54.4939 91.084C53.3855 91.9674 52.5145 93.0314 51.8811 94.2761C51.2478 95.5207 50.9314 96.8257 50.9314 98.1908C50.9314 102.688 52.964 104.86 56.3937 106.502C59.8235 108.144 64.6136 110.054 67.8532 110.959C67.4875 113.874 66.8128 117.369 66.5294 119.604C65.8548 122.621 65.7751 122.682 65.7751 124.329C65.7751 126.739 66.626 128.847 68.3281 130.653C70.0302 132.46 72.1083 133.364 74.5625 133.364C77.5708 133.364 80.0646 131.998 82.0438 129.268C84.023 126.538 85.6457 123.326 86.9124 119.632C88.0515 116.31 88.9496 112.955 89.6085 109.569C88.4035 109.527 87.248 109.292 86.1715 108.895L86.1681 108.911C80.4202 106.712 74.0282 102.427 71.0594 99.5761C68.0907 96.7254 65.5376 93.9549 63.4001 91.2647C61.2626 88.5746 59.6197 85.8844 58.4718 83.1943C57.3239 80.5042 56.75 77.7137 56.75 74.8228C56.75 69.6031 58.5114 65.2065 62.0343 61.633C65.5572 58.0595 69.8916 56.2726 75.0374 56.2726C75.3541 56.2726 75.6314 56.2928 75.8689 56.3329C76.1063 56.3731 76.3834 56.3932 76.7001 56.3932C76.3834 55.5902 76.1458 54.7872 75.9874 53.9842C75.8291 53.1812 75.75 52.3379 75.75 51.4545C75.75 47.4394 77.1355 44.0266 79.9062 41.216C82.6771 38.4054 86.0417 37 90 37ZM47.25 118.186C45.9042 118.186 44.7759 118.648 43.8655 119.572C42.9552 120.495 42.5 121.639 42.5 123.004C42.5 124.37 42.9552 125.514 43.8655 126.437C44.7759 127.361 45.9042 127.823 47.25 127.823C48.5958 127.823 49.7241 127.361 50.6345 126.437C51.5448 125.514 52 124.37 52 123.004C52 121.639 51.5448 120.495 50.6345 119.572C49.7241 118.648 48.5958 118.186 47.25 118.186ZM132.75 118.066C131.404 118.066 130.276 118.528 129.366 119.451C128.455 120.375 128 121.519 128 122.884C128 124.249 128.475 125.414 129.425 126.377C130.375 127.341 131.523 127.823 132.869 127.823C134.215 127.823 135.323 127.361 136.194 126.437C137.064 125.514 137.5 124.37 137.5 123.004C137.5 121.639 137.045 120.475 136.134 119.511C135.224 118.548 134.096 118.066 132.75 118.066ZM90 46.6364C88.6542 46.6364 87.5259 47.098 86.6155 48.0215C85.7051 48.945 85.25 50.0894 85.25 51.4545C85.25 52.8197 85.7051 53.9641 86.6155 54.8875C87.5259 55.811 88.6542 56.2726 90 56.2726C91.3458 56.2726 92.4741 55.811 93.3845 54.8875C94.2949 53.9641 94.75 52.8197 94.75 51.4545C94.75 50.0894 94.2949 48.945 93.3845 48.0215C92.4741 47.098 91.3458 46.6364 90 46.6364Z" fill="white"/>
</g>
<defs>
<filter id="filter0_d_126_200" x="21.4" y="25.4" width="137.2" height="129.2" filterUnits="userSpaceOnUse" color-interpolation-filters="sRGB">
<feFlood flood-opacity="0" result="BackgroundImageFix"/>
<feColorMatrix in="SourceAlpha" type="matrix" values="0 0 0 0 0 0 0 0 0 0 0 0 0 0 0 0 0 0 127 0" result="hardAlpha"/>
<feOffset/>
<feGaussianBlur stdDeviation="5.8"/>
<feComposite in2="hardAlpha" operator="out"/>
<feColorMatrix type="matrix" values="0 0 0 0 1 0 0 0 0 1 0 0 0 0 1 0 0 0 0.25 0"/>
<feBlend mode="normal" in2="BackgroundImageFix" result="effect1_dropShadow_126_200"/>
<feBlend mode="normal" in="SourceGraphic" in2="effect1_dropShadow_126_200" result="shape"/>
</filter>
<linearGradient id="paint0_linear_126_200" x1="162.422" y1="11.9531" x2="10.5469" y2="165.234" gradientUnits="userSpaceOnUse">
<stop offset="0.139423"/>
<stop offset="1" stop-color="#333333"/>
</linearGradient>
</defs>
</svg>
